<?xml version="1.0" encoding="UTF-8"?>
<svg xmlns="http://www.w3.org/2000/svg" xmlns:xlink="http://www.w3.org/1999/xlink" width="632" height="820" viewBox="0 0 632 820">
<path fill="none" stroke-width="4" stroke-linecap="butt" stroke-linejoin="miter" stroke="rgb(0%, 0%, 0%)" stroke-opacity="1" stroke-miterlimit="10" d="M 69 33 L 615 33 L 615 121 L 321 121 L 321 110 L 456 110 L 456 278 L 25 278 L 25 275 L 322 275 L 322 520 L 53 520 L 53 210 L 421 210 L 421 590 L 122 590 L 122 185 L 530 185 L 530 517 L 157 517 L 157 72 L 574 72 L 574 576 L 486 576 L 486 331 L 544 331 L 544 356 L 180 356 L 180 161 L 308 161 L 308 399 L 40 399 L 40 309 L 464 309 L 464 608 L 141 608 L 141 33 Z M 69 33 "/>
</svg>
