<?xml version="1.0" encoding="UTF-8"?>
<svg xmlns="http://www.w3.org/2000/svg" xmlns:xlink="http://www.w3.org/1999/xlink" width="632" height="820" viewBox="0 0 632 820">
<path fill="none" stroke-width="4" stroke-linecap="butt" stroke-linejoin="miter" stroke="rgb(0%, 0%, 0%)" stroke-opacity="1" stroke-miterlimit="10" d="M 189 73 L 275 73 L 275 445 L 148 445 L 148 359 L 296 359 L 296 487 L 0 487 L 0 203 L 556 203 L 556 346 L 29 346 L 29 192 L 338 192 L 338 479 L 37 479 L 37 40 L 572 40 L 572 375 L 503 375 L 503 317 L 586 317 L 586 329 L 68 329 L 68 212 L 552 212 L 552 531 L 539 531 L 539 5 L 546 5 L 546 431 L 62 431 L 62 429 L 354 429 L 354 431 L 169 431 L 169 178 L 595 178 L 595 261 L 336 261 L 336 48 L 336 73 Z M 189 73 "/>
</svg>
